<svg width="190" height="190" viewBox="0 0 190 190" fill="none" xmlns="http://www.w3.org/2000/svg">
<g filter="url(#filter0_d_598_2312)">
<g opacity="0.8" filter="url(#filter1_d_598_2312)">
<path opacity="0.4" d="M106.581 104.575C106.581 104.729 106.422 104.663 106.279 104.719C106.188 104.755 106.155 104.749 106.142 104.702C106.122 104.623 106.166 104.539 106.24 104.505C106.326 104.466 106.453 104.448 106.581 104.575C106.581 104.353 106.581 104.575 106.581 104.575ZM106.803 104.575C106.803 104.353 106.581 104.13 106.358 104.13C106.135 104.13 105.913 104.353 105.913 104.575C105.913 104.798 106.135 105.021 106.358 105.021C106.581 105.021 106.803 104.798 106.803 104.575ZM106.007 84.6302C105.955 84.5774 105.885 84.5625 105.833 84.6149C105.777 84.6703 105.956 84.5863 106.006 84.6466C108.402 87.5211 109.921 91.0438 109.921 95.0006C109.921 98.4951 108.635 101.775 106.695 104.211C106.65 104.268 106.69 104.353 106.763 104.353C106.788 104.353 106.813 104.341 106.829 104.322C109.04 101.657 110.366 98.5486 110.366 94.7779C110.146 91.0372 108.621 87.2966 106.007 84.6302ZM105.913 84.535C105.913 84.535 105.708 84.6365 105.661 84.6576C105.467 84.7446 105.467 84.7037 105.467 84.535C105.467 84.3123 105.467 84.3123 105.913 84.535C105.69 84.3123 105.913 84.3123 105.913 84.535ZM106.135 84.535C106.135 84.3123 105.913 84.0896 105.69 84.0896C105.467 84.0896 105.245 84.3123 105.245 84.535C105.245 84.7577 105.467 84.9803 105.69 84.9803C105.913 84.9803 106.135 84.7577 106.135 84.535ZM105.245 106.134C105.245 106.288 105.086 106.222 104.943 106.278C104.799 106.335 104.799 106.287 104.799 106.134C104.799 105.911 104.799 105.911 105.245 106.134C105.245 105.911 105.245 105.911 105.245 106.134ZM105.467 106.134C105.467 105.911 105.245 105.689 105.022 105.689C104.799 105.689 104.577 105.911 104.577 106.134C104.577 106.357 104.799 106.58 105.022 106.58C105.245 106.58 105.467 106.357 105.467 106.134ZM104.354 83.1989C104.354 83.3524 104.195 83.2863 104.052 83.3428C103.962 83.3787 103.928 83.3729 103.916 83.3253C103.895 83.2467 103.94 83.1626 104.014 83.1289C104.099 83.0899 104.227 83.0716 104.354 83.1989C104.354 82.9763 104.354 83.1989 104.354 83.1989ZM104.577 83.1989C104.577 82.9763 104.354 82.7536 104.131 82.7536C103.909 82.7536 103.686 82.9763 103.686 83.1989C103.686 83.4216 103.909 83.6443 104.131 83.6443C104.354 83.6443 104.577 83.4216 104.577 83.1989ZM104.799 106.357C102.127 108.584 98.7872 109.92 95.0018 109.92C89.9271 109.92 85.5083 107.515 82.8286 103.571C82.797 103.525 82.7708 103.467 82.8246 103.451C82.8905 103.431 83.0665 103.364 83.107 103.42C85.792 107.102 90.1813 109.474 95.0018 109.474C98.7872 109.92 102.127 108.361 104.799 106.357ZM82.9777 103.239C82.9777 103.315 82.6793 103.393 82.605 103.405C82.5324 103.416 82.5324 103.361 82.5324 103.239C82.5324 103.239 82.5324 103.239 82.5324 103.239C82.5324 103.239 82.5324 103.017 82.9777 103.239C82.755 103.017 82.9777 103.239 82.9777 103.239ZM83.2004 103.239C83.2004 103.017 82.9777 102.794 82.755 102.794C82.5324 102.794 82.3097 103.017 82.3097 103.239C82.3097 103.462 82.5324 103.685 82.755 103.685C82.9777 103.685 83.2004 103.462 83.2004 103.239ZM81.6417 101.013C81.6417 101.013 81.4371 101.114 81.3901 101.135C81.1964 101.222 81.1964 101.181 81.1964 101.013C81.1964 100.79 81.1964 100.79 81.6417 101.013C81.419 100.79 81.6417 100.79 81.6417 101.013ZM81.8644 101.013C81.8644 100.79 81.6417 100.567 81.419 100.567C81.1964 100.567 80.9737 100.79 80.9737 101.013C80.9737 101.235 81.1964 101.458 81.419 101.458C81.6417 101.458 81.8644 101.235 81.8644 101.013ZM103.909 82.9763C101.459 81.1949 98.3419 80.0815 95.0018 80.0815C86.7631 80.0815 80.083 86.7617 80.083 95.0006C80.083 96.9793 80.5172 98.958 81.1711 100.722C81.1862 100.763 81.2251 100.79 81.2686 100.79C81.3414 100.79 81.3918 100.717 81.3666 100.649C80.7278 98.9145 80.3057 97.1744 80.3057 95.2232C80.3057 86.9844 86.9857 80.3042 95.2245 80.3042C98.3419 80.0815 101.459 81.1949 103.909 82.9763Z" fill="#06FF79"/>
<path opacity="0.4" d="M111.032 85.6483C111.032 85.6483 111.032 85.6483 111.032 85.6483C111.255 85.6483 111.255 85.8709 111.255 86.0936C111.255 86.3163 111.032 86.3163 110.81 86.3163C110.788 86.3163 110.768 86.3142 110.751 86.3101C110.433 86.2379 110.707 85.6483 111.032 85.6483ZM111.533 85.7596C111.418 85.5296 111.108 85.4043 110.855 85.4502C110.707 85.4768 110.587 85.5324 110.587 85.6483C110.587 85.8709 110.587 86.3163 110.81 86.3163C110.906 86.3163 111.045 86.3163 111.171 86.298C111.426 86.2611 111.648 85.9896 111.533 85.7596ZM87.9022 77.9739C87.7501 78.0357 87.6122 78.1841 87.7524 78.2694C87.7988 78.2977 87.9004 78.2892 87.9506 78.2683C92.1639 76.5135 97.0307 76.084 101.457 77.8547C105.619 79.388 108.704 82.2141 110.711 85.6972C110.761 85.7842 110.88 85.8006 110.951 85.7296C110.999 85.6815 111.009 85.6073 110.976 85.5483C108.966 82.0314 105.649 79.1762 101.457 77.6321C96.8733 75.8857 92.0751 76.2794 87.9022 77.9739ZM87.4293 78.0774C87.4293 78.0774 87.4293 78.0774 87.4293 78.0774C87.652 78.0774 87.652 78.3001 87.652 78.5228C87.652 78.7454 87.4293 78.7454 87.2067 78.7454C87.1849 78.7454 87.1654 78.7433 87.1477 78.7393C86.8302 78.667 87.1037 78.0774 87.4293 78.0774ZM87.652 77.8547C87.4293 77.8547 86.984 77.8547 86.984 78.0774C86.984 78.3001 86.984 78.7454 87.2067 78.7454C87.6959 78.7454 88.1772 78.0624 87.727 77.8709C87.7024 77.8605 87.6772 77.8547 87.652 77.8547ZM112.094 87.9211C112.167 87.8602 112.213 87.857 112.284 87.9211C112.368 87.9978 112.368 88.1591 112.368 88.3203C112.368 88.543 112.146 88.543 111.923 88.543C111.834 88.543 111.781 88.5075 111.748 88.4506C111.651 88.2776 111.941 88.0479 112.094 87.9211ZM112.647 87.9863C112.532 87.7564 112.221 87.631 111.968 87.6769C111.821 87.7035 111.7 87.7591 111.7 87.875C111.7 88.0977 111.7 88.543 111.923 88.543C112.02 88.543 112.159 88.543 112.285 88.5247C112.539 88.4878 112.762 88.2163 112.647 87.9863ZM85.4253 79.1908C85.648 79.1908 85.648 79.4134 85.648 79.6361C85.648 79.8588 85.4253 79.8588 85.2026 79.8588C85.1867 79.8588 85.172 79.8577 85.1583 79.8555C84.8273 79.8026 85.0901 79.1908 85.4253 79.1908ZM85.4253 78.9681C85.2026 78.9681 84.7573 78.9681 84.7573 79.1908C84.7573 79.4134 84.7573 79.8588 84.98 79.8588C85.4692 79.8588 86.0546 79.1676 85.5965 78.996C85.549 78.9781 85.4921 78.9681 85.4253 78.9681ZM112.327 88.5372C112.382 88.5521 112.382 88.5784 112.403 88.6321C113.927 92.6171 113.915 97.0359 112.368 101.235C110.16 106.978 105.541 111.187 100.034 112.558C99.9653 112.576 99.8988 112.523 99.8988 112.452C99.8988 112.403 99.9316 112.36 99.979 112.346C105.51 110.772 110.152 106.774 112.368 101.013C113.899 96.8572 113.712 92.487 112.439 88.5349C112.407 88.4361 112.227 88.5103 112.327 88.5372ZM99.4534 112.592C99.4534 112.592 99.4534 112.592 99.4534 112.592C99.6761 112.592 99.6761 112.814 99.6761 113.037C99.6761 113.26 99.4534 113.26 99.2308 113.26C99.2091 113.26 99.1895 113.257 99.1718 113.253C98.8543 113.181 99.1278 112.592 99.4534 112.592ZM99.6761 112.369C99.4534 112.369 99.0081 112.369 99.0081 112.592C99.0081 112.814 99.0081 113.26 99.2308 113.26C99.72 113.26 100.201 112.576 99.7511 112.385C99.7265 112.375 99.7013 112.369 99.6761 112.369ZM96.3361 113.037C96.5587 113.037 96.5587 113.26 96.5587 113.482C96.5587 113.705 96.3361 113.705 96.1134 113.705C95.8907 113.705 95.8907 113.482 95.8907 113.26C95.8907 113.037 96.1134 113.037 96.3361 113.037ZM96.6144 113.148C96.4994 112.918 96.1887 112.793 95.9357 112.839C95.7887 112.865 95.6681 112.921 95.6681 113.037C95.6681 113.26 95.6681 113.705 95.8907 113.705C95.9875 113.705 96.1264 113.705 96.2525 113.687C96.5069 113.65 96.7294 113.378 96.6144 113.148ZM84.98 79.6361C81.8626 81.6402 79.1906 84.7576 77.8545 88.7657C74.2918 98.3406 79.1906 109.029 88.7653 112.592C91.1775 113.469 93.3736 113.698 95.7792 113.705C95.8407 113.705 95.8907 113.655 95.8907 113.594C95.8907 113.532 95.841 113.482 95.7795 113.482C93.5827 113.475 91.1777 113.245 88.988 112.369C79.6359 108.806 74.7372 98.3406 78.0772 88.9883C79.4132 84.9803 81.8626 81.8628 84.98 79.6361Z" fill="#06FF79"/>
<path opacity="0.4" d="M88.7652 115.709C88.7652 116.035 88.1756 116.308 88.1034 115.991C88.0993 115.973 88.0972 115.954 88.0972 115.932C88.0972 115.709 88.0972 115.487 88.3199 115.487C88.5426 115.487 88.7652 115.487 88.7652 115.709ZM88.2554 116.329C88.5656 116.44 88.9019 116.298 89.0714 116.015C89.2409 115.733 89.1313 115.35 88.8488 115.18C88.5662 115.011 88.1526 115.148 87.9942 115.437C87.9722 115.477 87.9525 115.52 87.9358 115.565C87.8509 115.796 87.9046 116.073 88.0911 116.233C88.1422 116.277 88.1963 116.308 88.2554 116.329ZM115.228 103.765C115.244 103.727 115.269 103.688 115.228 103.681C115.167 103.671 114.955 103.647 114.929 103.703C112.681 108.5 108.718 112.628 103.461 114.818C98.6 117.028 93.5194 117.045 88.8723 115.74C88.8186 115.724 88.7652 115.848 88.7652 115.904C88.7652 115.96 88.8186 115.947 88.8723 115.962C93.5194 117.268 98.6 117.253 103.461 115.264C108.999 113.049 112.994 108.851 115.228 103.765ZM115.486 103.24C115.486 103.575 114.874 103.838 114.821 103.507C114.819 103.493 114.817 103.478 114.817 103.462C114.817 103.24 114.818 103.017 115.04 103.017C115.263 103.017 115.486 103.017 115.486 103.24ZM115.21 103.993C115.402 103.977 115.561 103.844 115.684 103.696C115.731 103.64 115.774 103.579 115.811 103.512C115.97 103.223 115.852 102.88 115.569 102.711C115.286 102.541 114.873 102.679 114.714 102.967C114.692 103.008 114.673 103.05 114.656 103.096C114.571 103.326 114.635 103.589 114.788 103.781C114.906 103.928 115.038 104.008 115.21 103.993ZM86.0932 114.596C86.0932 114.88 85.4856 115.15 85.4301 114.872C85.4269 114.855 85.4252 114.838 85.4252 114.818C85.4252 114.596 85.4252 114.373 85.6479 114.373C85.8705 114.373 86.0932 114.373 86.0932 114.596ZM85.8705 115.264C85.9908 115.144 86.1111 115.023 86.1963 114.868C86.3547 114.579 86.2366 114.237 85.9541 114.067C85.6715 113.897 85.2579 114.035 85.0995 114.324C85.0775 114.364 85.0578 114.406 85.0411 114.452C84.9562 114.682 85.0226 114.947 85.1957 115.122C85.4231 115.351 85.7069 115.427 85.8705 115.264ZM116.154 101.013C115.931 101.013 115.708 101.013 115.708 100.79C115.708 100.567 115.708 100.345 115.931 100.345C116.294 100.345 116.598 100.903 116.248 101C116.217 101.008 116.185 101.013 116.154 101.013ZM116.376 101.236C116.496 101.115 116.617 100.995 116.702 100.84C116.86 100.551 116.742 100.208 116.46 100.039C116.177 99.8691 115.77 100.012 115.61 100.3C115.592 100.333 115.576 100.366 115.563 100.398C115.41 100.768 115.63 101.236 116.022 101.316C116.157 101.343 116.285 101.327 116.376 101.236ZM85.2025 114.401C85.2025 114.452 85.1488 114.569 85.1031 114.546C80.6929 112.313 76.9472 108.546 74.7371 103.462C71.8692 96.6233 72.7169 89.3472 76.4141 83.5829C76.4675 83.4996 76.5842 83.4874 76.6541 83.5574C76.7051 83.6084 76.7144 83.6878 76.6769 83.7494C73.1678 89.5226 72.3039 96.8224 74.9598 103.462C76.9489 108.325 80.6929 112.09 85.1031 114.323C85.1488 114.346 85.2025 114.35 85.2025 114.401ZM76.9638 83.1991C76.7411 83.1991 76.5185 83.1991 76.5185 82.9764C76.5185 82.7537 76.5185 82.531 76.7411 82.531C76.9638 82.531 77.1865 82.531 77.1865 82.7537C77.1865 82.9764 77.1865 83.1991 76.9638 83.1991ZM76.6766 83.5959C76.9868 83.707 77.3231 83.5651 77.4926 83.2826C77.6622 83 77.5525 82.6171 77.27 82.4475C76.9874 82.278 76.5738 82.4154 76.4154 82.7043C76.3934 82.7445 76.3737 82.787 76.357 82.8324C76.2722 83.063 76.3258 83.3407 76.5124 83.5006C76.5634 83.5443 76.6175 83.5747 76.6766 83.5959ZM79.4132 80.0817C79.1905 80.0817 78.9678 80.0817 78.9678 79.859C78.9678 79.6363 78.9678 79.4136 79.1905 79.4136C79.4132 79.4136 79.6358 79.4136 79.6358 79.6363C79.6358 79.859 79.6358 80.0817 79.4132 80.0817ZM79.126 80.4785C79.4362 80.5896 79.7756 80.4449 79.944 80.1617C80.1097 79.8831 79.9258 79.4751 79.6358 79.3301C79.3459 79.1852 79.027 79.2967 78.8688 79.5796C78.8451 79.6219 78.8241 79.6668 78.8063 79.715C78.7215 79.9456 78.7752 80.2233 78.9617 80.3832C79.0128 80.4269 79.0668 80.4573 79.126 80.4785ZM116.083 100.139C116.268 100.177 116.434 100.112 116.476 99.9276C117.474 95.5998 117.204 91.0694 115.263 86.5391C110.587 75.4055 97.672 70.0614 86.5386 74.7375C83.9202 75.8285 81.5156 77.561 79.5344 79.3064C79.4684 79.3645 79.4656 79.4661 79.5278 79.5282C79.5874 79.5879 79.6843 79.5878 79.7443 79.5285C81.7202 77.5763 83.9146 76.0535 86.5386 74.9602C97.4493 70.2841 110.364 75.6282 114.817 86.5391C116.559 90.8919 116.811 95.4573 115.782 99.8197C115.745 99.9735 115.929 100.106 116.083 100.139Z" fill="#06FF79"/>
<path opacity="0.4" d="M120.083 92.5505C120.276 92.5505 120.551 92.6636 120.551 92.8567C120.551 93.0498 120.271 93.1628 120.078 93.1628C119.885 93.1628 119.825 92.9318 119.779 92.7442C119.752 92.6313 119.805 92.5505 119.939 92.5505C119.988 92.5505 120.036 92.5505 120.083 92.5505ZM120.83 92.3278C120.704 92.2022 120.508 92.1475 120.28 92.1636C119.89 92.1912 119.525 92.4866 119.552 92.8772C119.557 92.9421 119.567 93.0095 119.583 93.0786C119.642 93.3282 119.749 93.5325 119.999 93.5883C120.503 93.7006 121.059 93.1848 120.988 92.6735C120.969 92.5336 120.916 92.414 120.83 92.3278ZM95.6681 69.6163C95.5451 69.6152 95.4455 69.715 95.4455 69.838C95.4455 69.9609 95.5452 70.0605 95.6682 70.0617C101.829 70.1193 107.973 72.5657 112.814 77.1861C116.994 81.3663 119.435 86.8508 119.922 92.3508C119.932 92.4636 120.032 92.5505 120.145 92.5505C120.275 92.5505 120.371 92.4368 120.354 92.3077C119.651 86.822 117.425 81.3521 113.036 76.9635C108.196 72.1229 101.834 69.6739 95.6681 69.6163ZM95.0837 69.4483C95.2768 69.4483 95.3373 69.6793 95.3829 69.8669C95.4103 69.9798 95.357 70.0606 95.2229 70.0606C95.1462 70.0606 95.0695 70.087 95.0019 70.1126C94.8212 70.1808 94.6105 69.9476 94.6105 69.7545C94.6105 69.5613 94.8906 69.4483 95.0837 69.4483ZM95.4455 69.1699C95.32 69.0443 95.1235 68.9896 94.8962 69.0057C94.5057 69.0333 94.1652 69.2516 94.1652 69.6431C94.1652 70.0346 94.491 70.4752 94.8815 70.4476C95.0572 70.4351 95.2514 70.3804 95.4455 70.2833C95.8909 70.0606 95.8909 69.6153 95.4455 69.1699ZM120.607 96.1132C120.696 96.2018 120.749 96.2904 120.767 96.3649C120.813 96.5526 120.543 96.673 120.355 96.7186C120.308 96.7302 120.266 96.7274 120.234 96.7103C120.133 96.6577 120.07 96.4716 120.023 96.3685C119.926 96.154 120.268 95.8804 120.47 96.0028C120.514 96.0299 120.561 96.0667 120.607 96.1132ZM120.83 95.8906C120.704 95.765 120.508 95.7102 120.28 95.7263C119.89 95.7539 119.525 96.0494 119.552 96.4399C119.557 96.5049 119.567 96.5723 119.583 96.6413C119.642 96.891 119.749 97.0952 119.999 97.151C120.503 97.2634 121.059 96.7475 120.988 96.2363C120.969 96.0963 120.916 95.9768 120.83 95.8906ZM91.8038 69.6153C91.997 69.6153 92.2725 69.7283 92.2725 69.9215C92.2725 70.1146 92.0415 70.175 91.8539 70.2206C91.741 70.2481 91.6602 70.1947 91.6602 70.0606C91.6602 69.838 91.4375 69.6153 91.6602 69.6153C91.6602 69.6153 91.7178 69.6153 91.8038 69.6153ZM92.4952 70.0328C92.4952 69.6413 92.2465 69.2256 91.855 69.2256C91.4635 69.2256 91.0478 69.4743 91.0478 69.8658C91.0478 70.2573 91.2965 70.673 91.688 70.673C92.0795 70.673 92.4952 70.4243 92.4952 70.0328ZM120.319 96.7731C120.408 96.7909 120.379 96.8587 120.371 96.9494C119.891 102.683 117.447 108.403 113.036 112.814C107.071 118.779 98.6948 121.237 90.952 119.97C90.8465 119.952 90.7695 119.852 90.7695 119.745C90.7695 119.609 90.8921 119.515 91.0264 119.537C98.7436 120.78 106.868 118.535 112.814 112.368C117.18 108.002 119.406 102.565 119.911 96.8973C119.923 96.7643 120.188 96.7471 120.319 96.7731ZM90.2452 119.494C90.4383 119.494 90.7138 119.607 90.7138 119.8C90.7138 119.993 90.4338 120.106 90.2407 120.106C90.0475 120.106 89.9871 119.875 89.9415 119.688C89.914 119.575 89.9674 119.494 90.1015 119.494H90.2452ZM91.1031 119.723C91.0866 119.332 90.6878 119.104 90.2963 119.104C89.9048 119.104 89.4892 119.353 89.4892 119.744C89.4892 120.136 89.7378 120.552 90.1293 120.552C90.5208 120.552 90.9841 120.27 91.0836 119.891C91.0989 119.833 91.1053 119.777 91.1031 119.723ZM85.7919 118.158C85.985 118.158 86.2605 118.271 86.2605 118.464C86.2605 118.657 85.9804 118.77 85.7873 118.77C85.5942 118.77 85.5337 118.539 85.4881 118.351C85.4607 118.239 85.514 118.158 85.6481 118.158C85.6968 118.158 85.7455 118.158 85.7919 118.158ZM86.3161 117.935C86.1905 117.81 85.9941 117.755 85.7668 117.771C85.3762 117.798 85.0358 118.017 85.0358 118.408C85.0358 118.8 85.3616 119.24 85.7521 119.213C85.9278 119.2 86.122 119.146 86.3161 119.048C86.7615 118.826 86.7615 118.38 86.3161 117.935ZM91.2194 69.9707C91.2092 69.9091 91.1587 69.8477 91.0972 69.8586C86.0151 70.7628 80.9414 72.986 76.964 76.9635C67.1666 86.9837 67.1666 103.016 77.1867 112.814C79.5692 115.196 82.3731 116.947 85.1885 118.065C85.3025 118.11 85.3986 118.051 85.451 117.94C85.5051 117.825 85.5152 117.661 85.3977 117.614C82.587 116.496 79.7945 114.747 77.632 112.368C67.8346 102.571 67.8346 86.761 77.4094 76.9635C81.3358 73.037 86.117 70.8201 91.1249 69.894C91.2215 69.8762 91.2354 70.0675 91.2194 69.9707Z" fill="#06FF79"/>
<path opacity="0.4" d="M120.385 80.7499C120.607 80.7499 120.607 80.9726 120.607 81.1953C120.607 81.4179 120.385 81.4179 120.162 81.4179C119.939 81.4179 119.939 81.1953 119.939 80.9726C119.939 80.7499 120.162 80.7499 120.385 80.7499ZM120.385 80.3046C119.939 80.0819 119.494 80.3046 119.271 80.7499C119.049 81.1953 119.271 81.6406 119.717 81.8633C120.162 82.086 120.607 81.8633 120.83 81.4179C121.053 80.9726 120.83 80.5272 120.385 80.3046ZM83.8724 68.4052C83.7627 68.4517 83.6847 68.5375 83.7515 68.6361C83.8201 68.7374 83.993 68.8919 84.1052 68.843C90.5155 66.0485 98.2052 65.8637 105.243 68.503C111.621 70.9222 116.478 75.2963 119.815 80.7673C119.85 80.8248 120.042 80.7728 120.108 80.7573C120.157 80.7456 120.131 80.6954 120.106 80.6512C116.984 75.1279 111.885 70.4925 105.466 68.0576C98.2012 65.1958 90.5014 65.5985 83.8724 68.4052ZM82.9893 68.6312C83.0865 68.2808 83.6442 68.5847 83.6442 68.9483C83.6442 69.171 83.4216 69.171 83.1989 69.171C82.9762 69.171 82.9762 68.9483 82.9762 68.7256C82.9762 68.6937 82.9808 68.6618 82.9893 68.6312ZM83.6442 68.0576C83.1989 67.8349 82.7536 68.0576 82.5309 68.503C82.3082 68.9483 82.5309 69.3936 82.9762 69.6163C83.4216 69.839 83.8669 69.6163 84.0896 69.171C84.3123 68.7256 84.0896 68.2803 83.6442 68.0576ZM121.943 84.3127C122.166 84.3127 122.166 84.5353 122.166 84.758C122.166 84.9807 121.943 84.9807 121.721 84.9807C121.498 84.9807 121.498 84.758 121.498 84.5353C121.498 84.3127 121.721 84.3127 121.943 84.3127ZM122.166 83.8673C121.721 83.6447 121.275 83.8673 121.053 84.3127C120.83 84.758 121.053 85.2034 121.498 85.426C121.943 85.6487 122.389 85.426 122.611 84.9807C122.834 84.5353 122.611 84.09 122.166 83.8673ZM80.3042 70.0617C80.5269 70.0617 80.5269 70.2843 80.5269 70.507C80.5269 70.7297 80.3042 70.7297 80.0815 70.7297C80.06 70.7297 80.0405 70.7276 80.0228 70.7236C79.7051 70.6517 79.9784 70.0617 80.3042 70.0617ZM80.7713 70.9048C81.1118 70.0883 79.5865 69.4931 79.1909 70.2843C78.9682 70.7297 79.1909 71.175 79.6362 71.3977C80.0816 71.6204 80.5269 71.3977 80.7496 70.9523C80.7574 70.9368 80.7646 70.9209 80.7713 70.9048ZM122.071 85.2626C122.185 85.2133 122.214 85.3379 122.255 85.455C124.398 91.6295 124.579 98.6534 121.943 105.244C118.631 114.298 110.938 120.505 102.34 122.779C102.232 122.808 102.146 122.744 102.109 122.638C102.065 122.512 102.066 122.348 102.195 122.313C110.757 120.023 118.195 113.828 121.498 105.021C123.894 98.4875 123.946 91.7409 121.656 85.6145C121.601 85.4695 121.929 85.3242 122.071 85.2626ZM101.248 122.741C101.345 122.39 101.903 122.694 101.903 123.058C101.903 123.28 101.68 123.28 101.458 123.28C101.235 123.28 101.235 123.058 101.235 122.835C101.235 122.803 101.24 122.771 101.248 122.741ZM101.903 122.167C101.458 121.944 101.012 122.167 100.79 122.612C100.567 123.058 100.79 123.503 101.235 123.726C101.68 123.948 102.126 123.726 102.348 123.28C102.571 122.835 102.348 122.39 101.903 122.167ZM96.559 123.28C96.7817 123.28 96.7817 123.503 96.7817 123.726C96.7817 123.948 96.559 123.948 96.3364 123.948C96.1137 123.948 96.1137 123.726 96.1137 123.503C96.1137 123.28 96.3364 123.28 96.559 123.28ZM96.7817 122.835C96.3364 122.612 95.891 122.835 95.6684 123.28C95.4457 123.726 95.6684 124.171 96.1137 124.394C96.5591 124.616 97.0044 124.394 97.2271 123.948C97.4497 123.503 97.227 123.058 96.7817 122.835ZM79.5172 70.832C79.4763 70.793 79.3796 70.7518 79.3323 70.7828C74.2498 74.1193 70.2723 78.7777 68.0574 84.758C62.4907 99.677 70.0614 116.377 84.7576 121.944C88.2547 123.256 91.9665 123.923 95.6821 123.737C95.7994 123.731 95.891 123.631 95.891 123.513C95.891 123.385 95.7832 123.287 95.6554 123.294C92.1617 123.473 88.4645 122.806 84.9803 121.499C70.2841 115.932 62.9361 99.4544 68.5028 84.758C70.6766 78.8885 74.5483 74.2924 79.4963 71.1769C79.5985 71.1124 79.6049 70.9153 79.5172 70.832Z" fill="#06FF79"/>
<path opacity="0.4" d="M80.9725 124.17C80.8357 124.17 80.699 124.17 80.5623 124.067C80.3354 123.896 80.2331 123.645 80.3601 123.39C80.4872 123.136 80.8297 122.985 81.0838 123.112C81.3379 123.239 81.4595 123.668 81.3296 123.921C81.2444 124.087 81.1084 124.17 80.9725 124.17ZM81.1951 124.615C81.6405 124.392 82.0858 123.947 81.8631 123.502C81.6405 123.056 81.1951 122.611 80.7498 122.834C79.9026 123.257 80.1736 124.942 81.0784 124.662C81.1185 124.649 81.1576 124.634 81.1951 124.615ZM122.405 112.255C122.496 112.11 122.443 111.817 122.294 111.732C122.227 111.694 122.142 111.74 122.102 111.805C117.868 118.655 111.214 123.736 103.017 125.951C95.5438 127.929 88.2878 126.87 81.8912 123.844C81.775 123.789 81.6701 123.845 81.6072 123.957C81.5484 124.062 81.5307 124.224 81.6392 124.276C88.0529 127.307 95.7524 128.158 103.017 126.396C111.342 124.206 118.158 118.997 122.405 112.255ZM122.834 111.923C122.697 111.923 122.561 111.923 122.424 111.82C122.197 111.649 122.098 111.294 122.269 111.067C122.297 111.03 122.332 110.993 122.377 110.957C122.518 110.841 122.647 110.787 122.826 110.824C123.188 110.899 123.221 111.469 123.039 111.79C122.989 111.879 122.933 111.923 122.834 111.923ZM122.834 112.368C123.28 112.145 123.725 111.7 123.502 111.255C123.28 110.809 122.834 110.364 122.389 110.587C121.944 110.809 121.498 111.255 121.721 111.7C121.944 112.145 122.389 112.591 122.834 112.368ZM77.555 121.74C77.3839 122.028 76.9425 122.242 76.7086 122.002C76.7025 121.996 76.6963 121.989 76.6901 121.982C76.5518 121.829 76.482 121.602 76.5628 121.412C76.5773 121.378 76.5966 121.344 76.6222 121.31C76.7933 121.083 77.1478 120.984 77.3746 121.155C77.4069 121.18 77.4393 121.21 77.4716 121.247C77.6001 121.395 77.6552 121.572 77.555 121.74ZM76.6026 122.444C77.0168 122.681 77.6849 122.544 77.9744 122.165C78.1279 121.964 78.1943 121.731 78.0778 121.498C77.8551 121.052 77.4098 120.607 76.9644 120.83C76.7554 120.934 76.5463 121.088 76.4064 121.267C76.1132 121.644 76.1884 122.207 76.6026 122.444ZM124.984 107.935C124.812 108.223 124.371 108.436 124.137 108.196C124.131 108.19 124.125 108.184 124.119 108.177C123.98 108.024 123.91 107.796 123.991 107.607C124.006 107.573 124.025 107.539 124.051 107.505C124.222 107.278 124.576 107.179 124.803 107.35C124.835 107.374 124.868 107.404 124.9 107.442C125.029 107.59 125.084 107.766 124.984 107.935ZM124.031 108.638C124.445 108.875 125.113 108.738 125.403 108.359C125.556 108.158 125.623 107.925 125.506 107.692C125.284 107.247 124.838 106.801 124.393 107.024C124.184 107.129 123.975 107.282 123.835 107.462C123.542 107.838 123.617 108.402 124.031 108.638ZM76.5534 121.261C76.4896 121.393 76.3536 121.381 76.2342 121.295C70.3594 117.062 65.7992 110.686 63.827 103.016C61.1823 92.6575 63.9909 82.081 70.5256 74.309C70.5953 74.2261 70.7923 74.2457 70.8974 74.2716C70.994 74.2955 71.0758 74.4079 71.0118 74.4841C64.669 82.043 61.8456 92.637 64.495 102.793C66.4465 110.166 70.7209 116.483 76.7012 120.716C76.8473 120.819 76.631 121.1 76.5534 121.261ZM71.5647 73.7345C71.4376 73.9887 71.0952 74.14 70.841 74.0129C70.5869 73.8858 70.4356 73.5433 70.5627 73.2892C70.6898 73.0351 71.0322 72.8838 71.2864 73.0109C71.5405 73.1379 71.6918 73.4804 71.5647 73.7345ZM70.674 74.3469C71.0912 74.5555 71.6638 74.447 71.9523 74.0806C72.1129 73.8765 72.1847 73.6385 72.0657 73.4005C71.843 72.9552 71.3977 72.5099 70.9524 72.7325C70.7383 72.8396 70.5242 72.998 70.3844 73.1833C70.1033 73.5554 70.2569 74.1383 70.674 74.3469ZM75.6284 70.0605C75.4917 70.0605 75.3549 70.0605 75.2182 69.9573C74.9914 69.7863 74.8924 69.4318 75.0635 69.2049C75.1011 69.1551 75.1523 69.1053 75.2222 69.0555C75.3364 68.9741 75.4314 68.9368 75.5706 68.9538C75.9564 69.0008 75.9889 69.6418 75.7753 69.9666C75.7377 70.024 75.6922 70.0605 75.6284 70.0605ZM74.5151 69.8378C74.9175 70.6426 76.6259 70.3067 76.3247 69.4588C76.3169 69.4367 76.3075 69.4146 76.2964 69.3924C76.0737 68.9471 75.6284 68.5018 75.1831 68.7244C74.7377 68.9471 74.2924 69.3924 74.5151 69.8378ZM124.854 107.247C124.979 107.247 125.091 107.17 125.136 107.054C127.528 100.87 128.383 94.0356 126.62 86.9835C121.944 69.8378 104.353 59.1495 87.2072 63.603C83.094 64.6854 79.4017 66.3993 76.1304 68.7446C76.0417 68.8082 76.0407 69.0363 76.0603 69.1437C76.0769 69.2347 76.179 69.3154 76.254 69.2612C79.5497 66.8793 83.2711 65.1417 87.2072 64.0483C104.353 59.8175 121.721 70.0605 125.952 87.2062C127.693 93.9526 127.094 100.699 124.571 106.822C124.488 107.023 124.636 107.247 124.854 107.247Z" fill="#06FF79"/>
<path opacity="0.4" d="M114.492 124.409C115.037 124.551 114.713 125.506 114.15 125.506C113.928 125.506 113.705 125.061 113.705 124.838C113.705 124.615 114.15 124.393 114.373 124.393C114.408 124.393 114.449 124.398 114.492 124.409ZM114.21 125.755C115.216 126.153 115.786 124.208 114.818 123.725C114.373 123.502 113.705 123.947 113.482 124.393C113.26 124.838 113.705 125.506 114.15 125.729C114.17 125.738 114.19 125.747 114.21 125.755ZM126.952 78.7322C126.898 78.6278 126.737 78.6483 126.636 78.7084C126.523 78.7752 126.468 78.8833 126.527 79.0001C130.429 86.7421 131.489 95.9901 128.846 105.02C126.45 113.079 121.498 119.434 115.031 123.875C114.901 123.965 114.84 124.356 114.931 124.484C114.975 124.546 115.086 124.585 115.149 124.543C121.779 120.09 127.078 113.437 129.514 105.243C132.163 96.1929 131.092 86.7053 126.952 78.7322ZM126.783 77.874C127.077 78.1312 126.779 78.5534 126.414 78.692C126.326 78.7253 126.24 78.7449 126.174 78.7449C125.952 78.7449 125.729 78.2995 125.729 78.0769C125.729 77.9435 125.889 77.8101 126.065 77.7245C126.27 77.6247 126.611 77.7235 126.783 77.874ZM126.407 79.2458C127.264 79.1771 127.522 77.9379 126.88 77.3662C126.796 77.2921 126.708 77.2304 126.62 77.1862C126.174 76.9635 125.506 77.4089 125.284 77.8542C125.115 78.1911 125.329 78.6554 125.636 78.958C125.823 79.1419 126.146 79.2667 126.407 79.2458ZM110.223 126.635C110.741 126.813 110.468 127.733 109.92 127.733C109.697 127.733 109.474 127.287 109.474 127.065C109.474 126.842 109.92 126.619 110.142 126.619C110.167 126.619 110.194 126.625 110.223 126.635ZM109.98 128.205C110.985 128.603 111.555 126.658 110.588 126.174C110.142 125.951 109.474 126.397 109.252 126.842C109.029 127.287 109.474 127.955 109.92 128.178C109.939 128.188 109.959 128.197 109.98 128.205ZM124.616 74.5141C124.616 74.7368 124.17 74.9595 123.948 74.9595C123.725 74.9595 123.502 74.5141 123.502 74.2915C123.502 74.0688 123.948 73.8461 124.17 73.8461C124.393 73.8461 124.616 74.2915 124.616 74.5141ZM123.785 75.2089C124.791 75.6069 125.36 73.6618 124.393 73.1781C123.948 72.9554 123.28 73.4008 123.057 73.8461C122.834 74.2914 123.28 74.9595 123.725 75.1821C123.745 75.1919 123.765 75.2009 123.785 75.2089ZM109.474 127.581C109.474 127.662 109.427 127.754 109.353 127.786C101.811 131.082 93.1741 131.949 84.758 129.291C73.2623 125.975 64.8394 117.172 61.2326 106.586C61.1941 106.473 61.2557 106.381 61.3655 106.334C61.4846 106.283 61.6493 106.277 61.6919 106.399C65.3029 116.75 73.4999 125.534 84.9806 128.846C93.3354 131.265 101.69 130.644 109.188 127.412C109.323 127.354 109.474 127.434 109.474 127.581ZM61.6004 105.688C61.6004 105.911 61.1551 106.134 60.9324 106.134C60.7097 106.134 60.4871 105.688 60.4871 105.466C60.4871 105.243 60.9324 105.02 61.1551 105.02C61.6004 105.02 61.6004 105.466 61.6004 105.688ZM62.0457 105.911C62.2684 105.466 61.8231 104.798 61.3777 104.575C60.9324 104.352 60.2644 104.798 60.0417 105.243C60.0352 105.256 60.0292 105.269 60.0238 105.283C59.6364 106.247 61.5809 106.841 62.0457 105.911ZM60.2644 99.4534C60.2644 99.6761 59.8191 99.8987 59.5964 99.8987C59.3737 99.8987 59.1511 99.4534 59.1511 99.2307C59.1511 99.008 59.5964 98.7854 59.8191 98.7854C60.0417 98.7854 60.2644 99.008 60.2644 99.4534ZM60.2087 100.121C60.7192 99.8662 60.8913 99.1256 60.5903 98.6408C60.4505 98.4155 60.2461 98.2196 60.0417 98.1174C59.5964 97.8947 58.9284 98.34 58.7057 98.7854C58.5969 99.0031 58.6476 99.274 58.78 99.5201C59.0504 100.023 59.6983 100.377 60.2087 100.121ZM123.583 73.6683C123.615 73.6418 123.689 73.5755 123.664 73.5417C119.215 67.5689 113.003 62.9251 105.466 60.7085C86.5393 55.1417 66.4991 65.8299 60.9324 84.757C59.6163 89.3634 59.1645 93.9697 59.5771 98.3632C59.5877 98.4765 59.6886 98.5627 59.8024 98.5627C59.9335 98.5627 60.0303 98.4496 60.0183 98.3191C59.6129 93.939 60.0661 89.352 61.3777 84.9797C66.9445 66.2753 86.762 55.587 105.243 61.1538C112.727 63.355 118.906 67.9498 123.349 73.6475C123.383 73.6915 123.539 73.7035 123.583 73.6683Z" fill="#06FF79"/>
<path opacity="0.4" d="M134.414 93.6646C134.636 93.8873 134.636 94.3326 134.414 94.5553C134.191 94.778 133.746 94.778 133.523 94.5553C133.069 94.1013 133.96 93.2106 134.414 93.6646ZM134.859 93.4419C134.414 92.9966 133.746 92.9966 133.3 93.4419C132.855 93.8873 132.855 94.5553 133.3 95.0006C133.746 95.446 134.414 95.446 134.859 95.0006C135.304 94.5553 135.304 93.8873 134.859 93.4419ZM98.1353 55.8323C98.0068 55.8202 97.8958 56.0067 97.8958 56.1358C97.8958 56.2513 97.9851 56.2619 98.1002 56.2705C107.607 56.9873 117.094 61.4326 123.948 69.1707C130.056 75.9332 133.172 84.4054 133.506 92.9124C133.517 93.207 133.968 93.1471 133.968 93.4419C133.746 84.5351 130.405 75.8508 124.171 68.948C117.323 60.9957 108.065 56.7687 98.1353 55.8323ZM97.8958 55.8104C98.1185 56.033 98.1185 56.4784 97.8958 56.7011C97.6732 56.9237 97.2278 56.9237 97.0052 56.7011C96.5483 56.2442 97.3268 55.3344 97.8248 55.7459C97.8503 55.767 97.8741 55.7887 97.8958 55.8104ZM98.5082 56.1444C98.5082 55.6119 98.1596 55.0669 97.6282 55.0331C97.3281 55.014 97.0229 55.1246 96.7825 55.365C96.3372 55.8104 96.3372 56.4784 96.7825 56.9237C97.0229 57.1641 97.3281 57.2747 97.6282 57.2556C98.1596 57.2218 98.5082 56.6768 98.5082 56.1444ZM134.191 99.0087C134.414 99.2314 134.414 99.6768 134.191 99.8994C133.968 100.122 133.523 100.122 133.3 99.8994C132.846 99.4455 133.737 98.5548 134.191 99.0087ZM134.636 98.7861C134.191 98.3407 133.523 98.3407 133.078 98.7861C132.632 99.2314 132.632 99.8994 133.078 100.345C133.523 100.79 134.191 100.79 134.636 100.345C135.082 99.8994 135.082 99.2314 134.636 98.7861ZM92.0166 55.6851C92.5022 55.259 93.2313 56.2442 92.7745 56.7011C92.5518 56.9237 92.1065 56.9237 91.8838 56.7011C91.6611 56.4784 91.6611 56.033 91.8838 55.8104C91.9304 55.7637 91.9746 55.722 92.0166 55.6851ZM93.2198 55.365C92.7745 54.9197 92.1065 54.9197 91.6611 55.365C91.2158 55.8104 91.2158 56.4784 91.6611 56.9237C92.1065 57.3691 92.7745 57.3691 93.2198 56.9237C93.6651 56.4784 93.6651 55.8104 93.2198 55.365ZM133.593 100.345C133.792 100.345 133.946 100.519 133.92 100.717C132.73 109.493 128.302 118.026 121.276 124.393C111.524 133.259 98.4634 135.947 86.4851 133.337C86.3869 133.316 86.3171 133.156 86.3171 133.055C86.3171 132.916 86.4475 132.887 86.5828 132.919C98.3154 135.706 111.328 132.79 120.831 124.171C127.879 117.783 132.095 109.435 133.263 100.635C133.285 100.469 133.426 100.345 133.593 100.345ZM85.8717 132.41C86.0944 132.632 86.0944 133.078 85.8717 133.3C85.6491 133.523 85.2037 133.523 84.9811 133.3C84.7584 133.078 84.7584 132.632 84.9811 132.41C85.2037 132.187 85.6491 132.187 85.8717 132.41ZM86.0944 131.964C85.6491 131.519 84.9811 131.519 84.5357 131.964C84.0904 132.41 84.0904 133.078 84.5357 133.523C85.3509 134.338 86.9064 132.809 86.1078 131.978C86.1034 131.973 86.0989 131.969 86.0944 131.964ZM79.1917 129.96C79.4143 130.183 79.4143 130.628 79.1917 130.851C78.969 131.073 78.5237 131.073 78.301 130.851C78.0783 130.628 78.0783 130.183 78.301 129.96C78.5237 129.737 78.969 129.737 79.1917 129.96ZM79.4143 129.737C78.969 129.292 78.301 129.292 77.8556 129.737C77.4103 130.183 77.4103 130.851 77.8556 131.296C78.301 131.742 78.969 131.742 79.4143 131.296C79.8597 130.851 79.8597 130.183 79.4143 129.737ZM91.458 56.0526C91.4082 56.0028 91.398 56.0364 91.3277 56.0424C83.3486 56.7319 75.3766 60.0678 68.9489 65.8306C52.6941 80.3043 51.3581 105.021 65.8315 121.276C69.3574 125.243 73.5374 128.337 77.9401 130.343C78.005 130.372 78.0771 130.302 78.0826 130.231C78.0905 130.128 78.022 129.82 77.9297 129.772C73.6246 127.571 69.7403 124.727 66.2769 120.831C52.0261 104.798 53.5847 80.3043 69.3942 66.0533C75.7165 60.385 83.3194 57.2781 91.367 56.5235C91.5705 56.5045 91.6026 56.1972 91.458 56.0526Z" fill="#06FF79"/>
</g>
<path d="M94.9987 140.648C69.8371 140.648 49.3516 120.162 49.3516 95.0006C49.3516 69.8386 69.8371 49.3528 94.9987 49.3528C120.16 49.3528 140.646 69.8386 140.646 95.0006C140.646 120.162 120.16 140.648 94.9987 140.648ZM94.9987 50.4661C70.5051 50.4661 50.4649 70.5066 50.4649 95.0006C50.4649 119.494 70.5051 139.535 94.9987 139.535C119.492 139.535 139.532 119.494 139.532 95.0006C139.532 70.5066 119.715 50.4661 94.9987 50.4661Z" fill="#06FF79"/>
<path d="M95.0016 139.757C70.2853 139.757 50.2451 119.716 50.2451 94.9998C50.2451 70.2832 70.2853 50.2427 95.0016 50.2427C119.718 50.2427 139.758 70.2832 139.758 94.9998C139.758 119.716 119.718 139.757 95.0016 139.757ZM95.0016 51.8014C71.176 51.8014 51.8038 71.1738 51.8038 94.9998C51.8038 118.826 71.176 138.198 95.0016 138.198C118.827 138.198 138.199 118.826 138.199 94.9998C138.199 71.1738 118.827 51.8014 95.0016 51.8014Z" fill="#06FF79"/>
<g filter="url(#filter2_d_598_2312)">
<path d="M95.0016 140.202C70.0627 140.202 49.7998 119.939 49.7998 94.9995C49.7998 70.0603 70.0627 49.7971 95.0016 49.7971C119.94 49.7971 140.203 70.0603 140.203 94.9995C140.203 119.939 119.94 140.202 95.0016 140.202ZM95.0016 51.3558C70.9534 51.3558 51.3585 70.951 51.3585 94.9995C51.3585 119.048 70.9534 138.643 95.0016 138.643C119.05 138.643 138.645 119.048 138.645 94.9995C138.645 70.951 119.05 51.3558 95.0016 51.3558Z" fill="#06FF79"/>
</g>
<path d="M95.0001 149.11C65.1625 149.11 40.8916 124.838 40.8916 95.0004C40.8916 65.1624 65.1625 40.8911 95.0001 40.8911C124.838 40.8911 149.109 65.1624 149.109 95.0004C149.331 124.838 124.838 149.11 95.0001 149.11ZM95.0001 43.7858C66.7212 43.7858 43.7863 66.7211 43.7863 95.0004C43.7863 123.28 66.7212 146.215 95.0001 146.215C123.279 146.215 146.214 123.28 146.214 95.0004C146.214 66.7211 123.279 43.7858 95.0001 43.7858Z" fill="black"/>
<g filter="url(#filter3_d_598_2312)">
<path d="M94.9992 150C64.7162 150 40 125.283 40 95C40 64.7166 64.7162 40 94.9992 40C125.282 40 149.998 64.7166 149.998 95C150.221 125.283 125.505 150 94.9992 150ZM94.9992 42.8947C66.2749 42.8947 42.8947 66.2753 42.8947 95C42.8947 123.725 66.2749 147.105 94.9992 147.105C123.723 147.105 147.104 123.725 147.104 95C147.104 66.2753 123.723 42.8947 94.9992 42.8947Z" fill="#06FF79"/>
</g>
<g filter="url(#filter4_d_598_2312)">
<g filter="url(#filter5_d_598_2312)">
<path fill-rule="evenodd" clip-rule="evenodd" d="M85.5775 97.5793C86.064 97.8597 86.3702 98.37 86.4219 98.9288C86.9118 104.216 89.2156 107.285 93.3356 108.135C93.8744 108.246 94.3503 108.573 94.6121 109.058C96.1518 111.902 98.0977 114.508 100.374 116.803C101.349 117.786 100.899 119.494 99.5214 119.631C98.3178 119.751 97.0638 119.811 95.7581 119.811C88.2678 119.811 82.4339 117.836 78.2563 113.886C74.1271 109.936 72.0625 104.336 72.0625 97.0862V92.6461C72.0625 91.3702 73.4431 90.5735 74.548 91.2111L85.5775 97.5793ZM72.891 87.683C72.378 87.3867 72.0625 86.8399 72.0625 86.248V83.3138C72.0625 82.0385 73.4431 81.2412 74.548 81.8788L85.4947 88.1986C86.007 88.4949 86.3232 89.0417 86.3232 89.6336V92.5679C86.3232 93.8438 84.9419 94.6404 83.8377 94.0028L72.891 87.683ZM84.6662 70.0398C85.5808 70.0398 86.3232 70.7815 86.3232 71.6968V83.2356C86.3232 84.5115 84.9419 85.3088 83.8377 84.6705L72.891 78.3507C72.378 78.0544 72.0625 77.5076 72.0625 76.9157V71.6968C72.0625 70.7815 72.8042 70.0398 73.7195 70.0398H84.6662Z" fill="#06FF79"/>
</g>
<g filter="url(#filter6_d_598_2312)">
<path fill-rule="evenodd" clip-rule="evenodd" d="M110.255 96.6759C110.255 103.236 112.357 107.04 116.561 108.09C117.391 108.298 118.05 108.993 118.05 109.849V118.107C118.05 119.04 117.278 119.794 116.348 119.72C110.647 119.264 106.108 117.324 102.73 113.898C98.8772 109.947 96.9512 104.346 96.9512 97.0941V82.3918C96.9512 81.1159 98.3318 80.3192 99.4367 80.9568L109.427 86.7246C109.939 87.0208 110.255 87.5677 110.255 88.1595V96.6759ZM107.77 83.1574C108.875 83.795 110.255 82.9983 110.255 81.7224V71.6968C110.255 70.7815 109.514 70.0398 108.598 70.0398H98.6082C97.6928 70.0398 96.9512 70.7815 96.9512 71.6968V75.9547C96.9512 76.5465 97.2673 77.0934 97.7797 77.3896L107.77 83.1574Z" fill="#06FF79"/>
</g>
</g>
</g>
<defs>
<filter id="filter0_d_598_2312" x="0" y="0" width="190" height="190" filterUnits="userSpaceOnUse" color-interpolation-filters="sRGB">
<feFlood flood-opacity="0" result="BackgroundImageFix"/>
<feColorMatrix in="SourceAlpha" type="matrix" values="0 0 0 0 0 0 0 0 0 0 0 0 0 0 0 0 0 0 127 0" result="hardAlpha"/>
<feOffset/>
<feGaussianBlur stdDeviation="20"/>
<feComposite in2="hardAlpha" operator="out"/>
<feColorMatrix type="matrix" values="0 0 0 0 0.0463889 0 0 0 0 0.695833 0 0 0 0 0.346333 0 0 0 0.8 0"/>
<feBlend mode="normal" in2="BackgroundImageFix" result="effect1_dropShadow_598_2312"/>
<feBlend mode="normal" in="SourceGraphic" in2="effect1_dropShadow_598_2312" result="shape"/>
</filter>
<filter id="filter1_d_598_2312" x="15.8066" y="15.031" width="159.386" height="159.258" filterUnits="userSpaceOnUse" color-interpolation-filters="sRGB">
<feFlood flood-opacity="0" result="BackgroundImageFix"/>
<feColorMatrix in="SourceAlpha" type="matrix" values="0 0 0 0 0 0 0 0 0 0 0 0 0 0 0 0 0 0 127 0" result="hardAlpha"/>
<feOffset/>
<feGaussianBlur stdDeviation="20"/>
<feComposite in2="hardAlpha" operator="out"/>
<feColorMatrix type="matrix" values="0 0 0 0 0.0463889 0 0 0 0 0.695833 0 0 0 0 0.346333 0 0 0 0.8 0"/>
<feBlend mode="normal" in2="BackgroundImageFix" result="effect1_dropShadow_598_2312"/>
<feBlend mode="normal" in="SourceGraphic" in2="effect1_dropShadow_598_2312" result="shape"/>
</filter>
<filter id="filter2_d_598_2312" x="9.7998" y="9.79712" width="170.403" height="170.405" filterUnits="userSpaceOnUse" color-interpolation-filters="sRGB">
<feFlood flood-opacity="0" result="BackgroundImageFix"/>
<feColorMatrix in="SourceAlpha" type="matrix" values="0 0 0 0 0 0 0 0 0 0 0 0 0 0 0 0 0 0 127 0" result="hardAlpha"/>
<feOffset/>
<feGaussianBlur stdDeviation="20"/>
<feComposite in2="hardAlpha" operator="out"/>
<feColorMatrix type="matrix" values="0 0 0 0 0.0463889 0 0 0 0 0.695833 0 0 0 0 0.346333 0 0 0 0.8 0"/>
<feBlend mode="normal" in2="BackgroundImageFix" result="effect1_dropShadow_598_2312"/>
<feBlend mode="normal" in="SourceGraphic" in2="effect1_dropShadow_598_2312" result="shape"/>
</filter>
<filter id="filter3_d_598_2312" x="0" y="0" width="190" height="190" filterUnits="userSpaceOnUse" color-interpolation-filters="sRGB">
<feFlood flood-opacity="0" result="BackgroundImageFix"/>
<feColorMatrix in="SourceAlpha" type="matrix" values="0 0 0 0 0 0 0 0 0 0 0 0 0 0 0 0 0 0 127 0" result="hardAlpha"/>
<feOffset/>
<feGaussianBlur stdDeviation="20"/>
<feComposite in2="hardAlpha" operator="out"/>
<feColorMatrix type="matrix" values="0 0 0 0 0.0463889 0 0 0 0 0.695833 0 0 0 0 0.346333 0 0 0 0.8 0"/>
<feBlend mode="normal" in2="BackgroundImageFix" result="effect1_dropShadow_598_2312"/>
<feBlend mode="normal" in="SourceGraphic" in2="effect1_dropShadow_598_2312" result="shape"/>
</filter>
<filter id="filter4_d_598_2312" x="72.0625" y="70.0398" width="49.9873" height="53.7712" filterUnits="userSpaceOnUse" color-interpolation-filters="sRGB">
<feFlood flood-opacity="0" result="BackgroundImageFix"/>
<feColorMatrix in="SourceAlpha" type="matrix" values="0 0 0 0 0 0 0 0 0 0 0 0 0 0 0 0 0 0 127 0" result="hardAlpha"/>
<feOffset dx="2" dy="2"/>
<feGaussianBlur stdDeviation="1"/>
<feComposite in2="hardAlpha" operator="out"/>
<feColorMatrix type="matrix" values="0 0 0 0 0 0 0 0 0 0 0 0 0 0 0 0 0 0 0.3 0"/>
<feBlend mode="normal" in2="BackgroundImageFix" result="effect1_dropShadow_598_2312"/>
<feBlend mode="normal" in="SourceGraphic" in2="effect1_dropShadow_598_2312" result="shape"/>
</filter>
<filter id="filter5_d_598_2312" x="32.0625" y="30.0398" width="108.834" height="129.771" filterUnits="userSpaceOnUse" color-interpolation-filters="sRGB">
<feFlood flood-opacity="0" result="BackgroundImageFix"/>
<feColorMatrix in="SourceAlpha" type="matrix" values="0 0 0 0 0 0 0 0 0 0 0 0 0 0 0 0 0 0 127 0" result="hardAlpha"/>
<feOffset/>
<feGaussianBlur stdDeviation="20"/>
<feComposite in2="hardAlpha" operator="out"/>
<feColorMatrix type="matrix" values="0 0 0 0 0.0463889 0 0 0 0 0.695833 0 0 0 0 0.346333 0 0 0 0.5 0"/>
<feBlend mode="normal" in2="BackgroundImageFix" result="effect1_dropShadow_598_2312"/>
<feBlend mode="normal" in="SourceGraphic" in2="effect1_dropShadow_598_2312" result="shape"/>
</filter>
<filter id="filter6_d_598_2312" x="56.9512" y="30.0398" width="101.099" height="129.686" filterUnits="userSpaceOnUse" color-interpolation-filters="sRGB">
<feFlood flood-opacity="0" result="BackgroundImageFix"/>
<feColorMatrix in="SourceAlpha" type="matrix" values="0 0 0 0 0 0 0 0 0 0 0 0 0 0 0 0 0 0 127 0" result="hardAlpha"/>
<feOffset/>
<feGaussianBlur stdDeviation="20"/>
<feComposite in2="hardAlpha" operator="out"/>
<feColorMatrix type="matrix" values="0 0 0 0 0.0463889 0 0 0 0 0.695833 0 0 0 0 0.346333 0 0 0 0.5 0"/>
<feBlend mode="normal" in2="BackgroundImageFix" result="effect1_dropShadow_598_2312"/>
<feBlend mode="normal" in="SourceGraphic" in2="effect1_dropShadow_598_2312" result="shape"/>
</filter>
</defs>
</svg>
